<svg width="70" height="54" viewBox="0 0 70 54" fill="none" xmlns="http://www.w3.org/2000/svg">
<path fill-rule="evenodd" clip-rule="evenodd" d="M35 5.00003C30.1696 5.00003 25.5744 5.71108 21.4132 6.99298C17.2286 2.20867 13.0933 -0.187297 10.2402 1.06911C7.13883 2.43486 6.2663 7.80213 7.46238 14.9205C3.39716 18.8753 1 23.7401 1 29C1 42.2549 16.2223 53 35 53C53.7777 53 69 42.2549 69 29C69 24.1558 66.9668 19.6469 63.47 15.8751C64.7648 8.56233 63.9178 3.02256 60.7598 1.63185C57.9439 0.391807 53.8789 2.70964 49.7503 7.37005C45.2886 5.85124 40.2851 5.00003 35 5.00003Z" fill="#6C63FF"/>
<path fill-rule="evenodd" clip-rule="evenodd" d="M14.7869 19.1178C15.2741 18.4478 16.2123 18.2997 16.8822 18.7869C20.1144 21.1376 23.8562 20.9591 25.9558 18.9232C26.5505 18.3465 27.5001 18.3611 28.0768 18.9558C28.6535 19.5506 28.6389 20.5002 28.0442 21.0769C24.6438 24.3743 19.2189 24.1958 15.1177 21.2131C14.4477 20.7259 14.2996 19.7878 14.7869 19.1178ZM56.2131 19.1178C55.7258 18.4478 54.7877 18.2997 54.1177 18.7869C50.8856 21.1376 47.1438 20.9591 45.0442 18.9232C44.4495 18.3465 43.4998 18.3611 42.9231 18.9558C42.3464 19.5506 42.361 20.5002 42.9558 21.0769C46.3562 24.3743 51.7811 24.1958 55.8822 21.2131C56.5522 20.7259 56.7003 19.7878 56.2131 19.1178ZM33.4698 28.6508C32.5898 28.2151 32 27.4149 32 26.5C32 25.1193 33.3431 24 35 24C36.6568 24 38 25.1193 38 26.5C38 27.4149 37.4102 28.2151 36.5302 28.6508C36.6413 31.5631 37.049 33.4971 37.5798 34.7239C38.18 36.1112 38.8427 36.4201 39.3238 36.4844C39.9489 36.568 40.8365 36.3175 41.9236 35.6192C42.9743 34.9442 44.0148 33.9755 44.8668 32.9931C45.4096 32.3673 46.3569 32.2999 46.9828 32.8427C47.6086 33.3855 47.676 34.3329 47.1332 34.9587C46.1518 36.0902 44.9007 37.2724 43.5451 38.1432C42.2259 38.9907 40.5927 39.6808 38.9261 39.4579C37.2293 39.231 35.8932 38.1233 35 36.2928C34.1067 38.1233 32.7707 39.231 31.0738 39.4579C29.4073 39.6808 27.774 38.9907 26.4549 38.1432C25.0993 37.2724 23.8481 36.0902 22.8668 34.9587C22.324 34.3329 22.3913 33.3855 23.0172 32.8427C23.643 32.2999 24.5904 32.3673 25.1332 32.9931C25.9852 33.9755 27.0257 34.9442 28.0763 35.6192C29.1634 36.3175 30.051 36.568 30.6761 36.4844C31.1573 36.4201 31.82 36.1112 32.4202 34.7239C32.951 33.4971 33.3587 31.5631 33.4698 28.6508Z" fill="#3F3D56"/>
</svg>
